<svg xmlns="http://www.w3.org/2000/svg" aria-hidden="true"
  style="position:absolute;width:0;height:0;overflow:hidden">
  <defs>
    <symbol id="icon-delivery" viewBox="0 0 32 32">
      <path d="M16 15.273H2.909v2.182H16v-2.182zM11.636 9.818H.727V12h10.909V9.818z" />
      <path
        d="m31.184 15.934-3.273-7.636a1.09 1.09 0 0 0-1.003-.661h-3.273V5.455a1.094 1.094 0 0 0-1.091-1.091H5.089v2.182h16.364v13.698a4.348 4.348 0 0 0-2.027 2.666H12.57a4.363 4.363 0 1 0 0 2.182h6.856a4.34 4.34 0 0 0 4.209 3.272 4.344 4.344 0 0 0 4.209-3.272h2.337a1.094 1.094 0 0 0 1.091-1.091v-7.636c0-.148-.03-.294-.088-.429zM8.364 26.182a2.179 2.179 0 0 1-2.016-1.347 2.185 2.185 0 0 1 .473-2.378 2.181 2.181 0 1 1 1.543 3.724zM23.636 9.818h2.554l2.338 5.455h-4.892V9.818zm0 16.364a2.179 2.179 0 0 1-2.139-2.608 2.177 2.177 0 0 1 1.714-1.714 2.186 2.186 0 0 1 2.24.927 2.179 2.179 0 0 1-.272 2.754 2.187 2.187 0 0 1-1.542.64zm5.455-3.273h-1.246a4.356 4.356 0 0 0-4.209-3.273v-2.182h5.455v5.455z" />
    </symbol>
    <symbol id="icon-check" viewBox="0 0 32 32">
      <path
        d="M13.818 21.906 8.363 16.45l1.541-1.541 3.913 3.912 8.275-8.276 1.544 1.544-9.818 9.817z" />
      <path
        d="M16 .727A15.274 15.274 0 0 0 1.021 18.979a15.27 15.27 0 0 0 12 12A15.273 15.273 0 1 0 16.001.728zm0 28.364A13.095 13.095 0 0 1 3.905 21.01 13.091 13.091 0 1 1 16 29.09z" />
    </symbol>
    <symbol id="icon-check1" viewBox="0 0 32 32">
      <path
        d="M16 0c-3.165 0-6.258 0.938-8.889 2.696s-4.682 4.257-5.893 7.181c-1.211 2.924-1.528 6.141-0.91 9.244s2.141 5.955 4.379 8.192c2.238 2.238 5.089 3.762 8.192 4.379s6.321 0.301 9.244-0.91c2.924-1.211 5.422-3.262 7.181-5.893s2.696-5.725 2.696-8.889c0-4.243-1.686-8.313-4.686-11.314s-7.070-4.686-11.314-4.686zM13.714 22.39l-5.714-5.714 1.818-1.818 3.896 3.896 8.469-8.468 1.824 1.812-10.292 10.291z"></path>
    </symbol>
    <symbol id="icon-plant" viewBox="0 0 25 32">
      <path
        d="M21.455.727A12.012 12.012 0 0 0 10.279 8.39a7.625 7.625 0 0 0-6.278-3.299H.728v3.273A7.644 7.644 0 0 0 8.364 16h1.091v9.872a10.826 10.826 0 0 0-6.623 3.141l1.543 1.543a8.731 8.731 0 0 1 10.658-1.314 8.72 8.72 0 0 1 2.769 2.637l1.813-1.214a10.877 10.877 0 0 0-7.978-4.78v-9.886h1.091a12.011 12.011 0 0 0 12-12V.726h-3.273zM8.364 13.818A5.463 5.463 0 0 1 2.91 8.364V7.273h1.091a5.463 5.463 0 0 1 5.454 5.454v1.091H8.364zM22.545 4a9.826 9.826 0 0 1-9.818 9.818h-1.091v-1.091a9.826 9.826 0 0 1 9.818-9.818h1.091V4z" />
    </symbol>
    <symbol id="icon-search" viewBox="0 0 32 32">
      <path
        d="m31.619 30.003-8.631-8.631A12.59 12.59 0 0 0 13.026.726a12.592 12.592 0 1 0 8.343 22.264L30 31.621l1.616-1.616zM3.047 13.333a10.285 10.285 0 1 1 10.286 10.286A10.3 10.3 0 0 1 3.047 13.333z" />
    </symbol>
    <symbol id="icon-shopping-cart" viewBox="0 0 32 32">
      <path
        d="M10.909 31.273a2.182 2.182 0 1 0 0-4.364 2.182 2.182 0 0 0 0 4.364zM26.182 31.273a2.182 2.182 0 1 0 0-4.364 2.182 2.182 0 0 0 0 4.364zM30.545 6.182H6.349L5.454 1.6a1.094 1.094 0 0 0-1.09-.873H0v2.182h3.469l4.167 20.945a1.094 1.094 0 0 0 1.09.873h19.636v-2.182H9.62l-.895-4.364h19.636a1.094 1.094 0 0 0 1.091-.85l2.182-9.818a1.086 1.086 0 0 0-.609-1.231 1.096 1.096 0 0 0-.481-.099zM27.491 16H8.313L6.786 8.364h22.396L27.491 16z" />
    </symbol>
    <symbol id="icon-user" viewBox="0 0 32 32">
      <path
        d="M16 7.273a5.455 5.455 0 1 0-.001 10.909A5.455 5.455 0 0 0 16 7.274zM16 16a3.27 3.27 0 0 1-3.023-2.021 3.278 3.278 0 0 1 2.386-4.463 3.273 3.273 0 1 1 .639 6.482z" />
      <path
        d="M16 .727A15.274 15.274 0 0 0 1.021 18.979a15.27 15.27 0 0 0 12 12A15.273 15.273 0 0 0 31.273 16 15.291 15.291 0 0 0 16.001.728zM9.455 27.32v-1.502a3.28 3.28 0 0 1 3.273-3.273h6.545a3.28 3.28 0 0 1 3.273 3.273v1.502a12.977 12.977 0 0 1-13.09 0zm15.264-1.583a5.456 5.456 0 0 0-5.447-5.373h-6.545a5.456 5.456 0 0 0-5.447 5.373c-1.978-1.767-3.373-4.092-4.001-6.669s-.457-5.284.489-7.762 2.621-4.61 4.805-6.115a13.095 13.095 0 0 1 14.852 0 13.088 13.088 0 0 1 5.294 13.877 13.083 13.083 0 0 1-4.001 6.669z" />
    </symbol>
    <symbol id="icon-burger" viewBox="0 0 32 32">
      <path
        d="M32 2.667H0v2.667h32V2.667zM32 26.667H0v2.667h32v-2.667zM32 10.667H0v2.667h32v-2.667zM32 18.667H0v2.667h32v-2.667z" />
    </symbol>
    <symbol id="icon-close" viewBox="0 0 32 32">
      <path
        d="M32 2.8 29.2 0 16 13.2 2.8 0 0 2.8 13.2 16 0 29.2 2.8 32 16 18.8 29.2 32l2.8-2.8L18.8 16 32 2.8z" />
    </symbol>
    <symbol id="icon-drop" viewBox="0 0 32 32">
      <path d="m32 5.333-16 20-16-20h32z" />
    </symbol>
    <symbol id="icon-facebook" viewBox="0 0 32 32">
      <path
        d="M30.227 0H1.774A1.788 1.788 0 0 0 .001 1.773v28.453a1.788 1.788 0 0 0 1.773 1.773h15.32V19.626h-4.16v-4.84h4.16v-3.56c0-4.133 2.52-6.387 6.227-6.387 1.24 0 2.48 0 3.72.187v4.307h-2.547c-2.013 0-2.4.96-2.4 2.36v3.08h4.8l-.627 4.84h-4.173V32h8.133A1.788 1.788 0 0 0 32 30.227V1.774A1.788 1.788 0 0 0 30.227.001z" />
    </symbol>
    <symbol id="icon-skype" viewBox="0 0 32 32">
      <path
        d="M30.292 18.256c.121-.746.181-1.5.18-2.256A14.472 14.472 0 0 0 16 1.528a13.97 13.97 0 0 0-2.256.18A8.747 8.747 0 0 0 .567 8.141a8.745 8.745 0 0 0 1.177 5.567A13.982 13.982 0 0 0 1.528 16 14.472 14.472 0 0 0 16 30.472a13.97 13.97 0 0 0 2.256-.18 8.747 8.747 0 0 0 13.177-6.433 8.752 8.752 0 0 0-1.177-5.567l.036-.036zm-7.416 4.32a6.005 6.005 0 0 1-2.688 2.076 10.8 10.8 0 0 1-4.176.744A10.101 10.101 0 0 1 11.2 24.4a6.236 6.236 0 0 1-2.184-1.956 4.308 4.308 0 0 1-.84-2.4 1.635 1.635 0 0 1 .516-1.2A1.873 1.873 0 0 1 10 18.4c.398-.008.786.129 1.092.384.335.313.594.699.756 1.128a7 7 0 0 0 .792 1.416c.317.406.729.727 1.2.936a4.66 4.66 0 0 0 2.028.372 4.802 4.802 0 0 0 2.808-.744 2.157 2.157 0 0 0 1.068-1.836 1.855 1.855 0 0 0-.564-1.404 3.706 3.706 0 0 0-1.5-.84c-.624-.204-1.452-.408-2.496-.636A19.203 19.203 0 0 1 11.692 16a5.733 5.733 0 0 1-2.268-1.68 4.203 4.203 0 0 1-.84-2.652 4.38 4.38 0 0 1 .888-2.688 5.638 5.638 0 0 1 2.568-1.8A11.4 11.4 0 0 1 16 6.604a10.345 10.345 0 0 1 3.108.42 6.971 6.971 0 0 1 2.196 1.104 4.7 4.7 0 0 1 1.272 1.452c.259.458.4.974.408 1.5a1.682 1.682 0 0 1-.516 1.2 1.713 1.713 0 0 1-1.284.552c-.386.03-.769-.09-1.068-.336a4.03 4.03 0 0 1-.78-1.044 4.543 4.543 0 0 0-1.26-1.572 3.761 3.761 0 0 0-2.34-.552 4.372 4.372 0 0 0-2.4.6 1.724 1.724 0 0 0-.912 1.44c-.009.326.097.645.3.9.239.277.534.502.864.66.352.182.722.327 1.104.432a47.53 47.53 0 0 0 1.884.468c1.104.24 2.088.504 2.988.792a9.141 9.141 0 0 1 2.28 1.056c.617.39 1.125.931 1.476 1.572.357.731.522 1.54.48 2.352a5.085 5.085 0 0 1-.924 2.976z" />
    </symbol>
    <symbol id="icon-twitter" viewBox="0 0 32 32">
      <path
        d="M10.56 27.92a17.02 17.02 0 0 0 12.137-4.982 17.01 17.01 0 0 0 4.982-12.137v-.787a12.53 12.53 0 0 0 2.987-3.107 12.41 12.41 0 0 1-3.453.947 6.077 6.077 0 0 0 2.667-3.333 11.87 11.87 0 0 1-3.813 1.467 6.026 6.026 0 0 0-10.266 5.481 17.05 17.05 0 0 1-12.4-6.28 6.018 6.018 0 0 0 1.866 8 5.96 5.96 0 0 1-2.667-.747v.067a6.044 6.044 0 0 0 4.733 5.933c-.87.234-1.781.27-2.667.107a6.017 6.017 0 0 0 5.573 4.12 12.072 12.072 0 0 1-7.48 2.667 13.117 13.117 0 0 1-1.427-.12 17.026 17.026 0 0 0 9.227 2.667z" />
    </symbol>
    <symbol id="icon-pinterest" viewBox="0 0 32 32">
      <path
        d="M16 .727a15.272 15.272 0 0 0-5.564 29.455 14.445 14.445 0 0 1 0-4.364l1.8-7.636A5.515 5.515 0 0 1 11.821 16c0-2.116 1.233-3.709 2.76-3.709a1.932 1.932 0 0 1 1.467.647 1.913 1.913 0 0 1 .464 1.534c0 1.309-.829 3.273-1.265 5.084a2.175 2.175 0 0 0 .417 1.97 2.174 2.174 0 0 0 1.853.789c2.705 0 4.8-2.869 4.8-6.993a6.025 6.025 0 0 0-1.82-4.517 6.027 6.027 0 0 0-4.562-1.702 6.62 6.62 0 0 0-4.867 1.84 6.618 6.618 0 0 0-2.027 4.792 5.915 5.915 0 0 0 1.091 3.48.485.485 0 0 1 .109.437c-.12.48-.382 1.527-.425 1.735s-.229.338-.513.207c-1.909-.895-3.098-3.676-3.098-5.924 0-4.811 3.502-9.24 10.091-9.24 5.291 0 9.415 3.775 9.415 8.825 0 5.258-3.273 9.491-7.931 9.491a4.093 4.093 0 0 1-3.501-1.745l-.949 3.633a16.968 16.968 0 0 1-1.898 4.004c1.483.438 3.024.652 4.571.633a15.275 15.275 0 0 0 15.273-15.272A15.271 15.271 0 0 0 16.003.727z" />
    </symbol>
    <symbol id="icon-linkedin" viewBox="0 0 32 32">
      <path
        d="M29.6 0H2.4C1.067 0 0 1.067 0 2.267V29.6c0 1.2 1.067 2.267 2.4 2.267h27.2c1.333 0 2.4-1.067 2.4-2.267V2.267C32 1.067 30.933 0 29.6 0zM9.467 27.2H4.8V12h4.667v15.2zM7.2 9.867c-1.467 0-2.8-1.2-2.8-2.8s1.2-2.8 2.8-2.8c1.467 0 2.8 1.2 2.8 2.8s-1.333 2.8-2.8 2.8zm20.133 17.2h-4.667V19.6c0-1.733 0-4.133-2.533-4.133s-2.8 2-2.8 3.867v7.6h-4.667V12.001h4.4v2h.133c.667-1.2 2.267-2.533 4.533-2.533 4.8 0 5.733 3.2 5.733 7.333v8.267h-.133z" />
    </symbol>
    <symbol id="icon-card" viewBox="0 0 32 32">
      <path
        d="M29.091 5.091H2.909A2.182 2.182 0 0 0 .727 7.273v17.455a2.182 2.182 0 0 0 2.182 2.182h26.182a2.182 2.182 0 0 0 2.182-2.182V7.273a2.182 2.182 0 0 0-2.182-2.182zm0 2.182v3.273H2.909V7.273h26.182zM2.909 24.727v-12h26.182v12H2.909z" />
      <path d="M16 20.364H5.091v2.182H16v-2.182z" />
    </symbol>
    <symbol id="icon-instagram" viewBox="0 0 32 32">
      <path
        d="M24.541 9.379a1.92 1.92 0 1 0-.001-3.841 1.92 1.92 0 0 0 .001 3.841zM16 7.784a8.216 8.216 0 1 0 .002 16.431 8.216 8.216 0 0 0-.003-16.431zm0 13.549a5.333 5.333 0 1 1-.004-10.662 5.333 5.333 0 0 1 .006 10.66z" />
      <path
        d="M16 2.883c4.272 0 4.778.016 6.465.093a8.837 8.837 0 0 1 2.971.551 5.298 5.298 0 0 1 3.037 3.037c.353.952.539 1.956.551 2.971.077 1.687.093 2.193.093 6.465s-.016 4.778-.093 6.465a8.837 8.837 0 0 1-.551 2.971 5.312 5.312 0 0 1-3.037 3.036 8.837 8.837 0 0 1-2.971.551c-1.687.077-2.193.093-6.465.093s-4.778-.016-6.465-.093a8.837 8.837 0 0 1-2.971-.551 5.298 5.298 0 0 1-3.037-3.036 8.846 8.846 0 0 1-.551-2.971c-.077-1.687-.093-2.193-.093-6.465s.016-4.778.093-6.465a8.837 8.837 0 0 1 .551-2.971 5.298 5.298 0 0 1 3.037-3.037 8.842 8.842 0 0 1 2.971-.551c1.687-.077 2.193-.093 6.465-.093zM16 0c-4.345 0-4.89.018-6.597.096C8.076.123 6.763.374 5.52.84A8.18 8.18 0 0 0 .84 5.52a11.742 11.742 0 0 0-.744 3.884C.018 11.11 0 11.655 0 16s.018 4.89.096 6.597c.027 1.327.278 2.641.744 3.884a8.18 8.18 0 0 0 4.68 4.68c1.243.466 2.556.717 3.884.744 1.706.077 2.251.096 6.596.096s4.89-.018 6.597-.096a11.747 11.747 0 0 0 3.884-.744 8.18 8.18 0 0 0 4.68-4.68c.466-1.243.717-2.556.744-3.884.077-1.706.096-2.251.096-6.596s-.018-4.89-.096-6.597a11.741 11.741 0 0 0-.744-3.883 8.18 8.18 0 0 0-4.68-4.679 11.742 11.742 0 0 0-3.884-.744C20.891.019 20.346.001 16.001.001z" />
    </symbol>
  </defs>
</svg>